# xmcd
#
# Track frame offsets:
#	150
#	14444
#	30529
#	43145
#	59230
#	75436
#	91424
#	106811
#	124465
#	145142
#	160807
#	174976
#	190091
#
# Disc length: 2759 seconds
#
# Revision: 6
# Processed by: cddbd v1.5.2PL0 Copyright (c) Steve Scherf et al.
# Submitted via: audiograbber 1.83.01
#
DISCID=aa0ac50d
DTITLE=Patricia Kaas - Patricia Kaas (Deluxe Edition) CD1
DYEAR=2016
DGENRE=Variété Française
TTITLE0=Adèle
TTITLE1=Cogne
TTITLE2=Madame tout le monde
TTITLE3=Sans tes mains
TTITLE4=La maison au bord de mer
TTITLE5=Embrasse
TTITLE6=Marre de mon amant
TTITLE7=Sans nous
TTITLE8=Ne l'oublie jamais
TTITLE9=Le jour et l'heure
TTITLE10=La langue que je parle
TTITLE11=Ma météo personnelle
TTITLE12=Ma tristesse est n'importe où
EXTD=CD 1
EXTT0=
EXTT1=
EXTT2=
EXTT3=
EXTT4=
EXTT5=
EXTT6=
EXTT7=
EXTT8=
EXTT9=
EXTT10=
EXTT11=
EXTT12=
PLAYORDER=
